<svg width="154" height="241" viewBox="0 0 154 241" fill="none" xmlns="http://www.w3.org/2000/svg">
<mask id="mask0_622_11530" style="mask-type:alpha" maskUnits="userSpaceOnUse" x="0" y="0" width="154" height="241">
<rect x="0.804688" width="152.65" height="240.948" rx="13.4691" fill="#D9D9D9"/>
</mask>
<g mask="url(#mask0_622_11530)">
<mask id="mask1_622_11530" style="mask-type:luminance" maskUnits="userSpaceOnUse" x="-11" y="-46" width="178" height="320">
<path d="M-0.0789958 -45.6452C-5.75899 -45.6452 -10.4062 -40.8578 -10.4062 -35.0079V262.861C-10.4062 268.711 -5.75899 273.498 -0.0789958 273.498H156.307C161.987 273.498 166.634 268.711 166.634 262.861V-35.0079C166.634 -40.8578 161.987 -45.6452 156.307 -45.6452H-0.0789958Z" fill="white"/>
</mask>
<g mask="url(#mask1_622_11530)">
<path d="M177.709 480.238H-21.4844V-62.8379H177.709V480.238Z" fill="#212121"/>
<path d="M-67.7109 38.5663V397.89C16.2807 547.068 171.933 516.61 255.925 306.538C223.766 304.267 181.093 275.652 135.963 220.707C63.2387 228.389 -15.8784 167.679 -67.7109 38.5663Z" fill="#CDEBFA"/>
<path d="M-67.7109 68.7075V409.773C16.2807 558.939 171.933 528.493 255.925 318.409C223.766 316.138 181.093 287.523 135.963 232.578C63.2387 246.354 -15.8784 191.739 -67.7109 68.7075Z" fill="#81CDF2"/>
<path d="M-67.7109 97.3351V420.13C16.2807 569.296 171.933 538.85 255.925 328.767C223.766 326.495 181.093 297.881 135.963 242.935C63.2387 262.806 -15.8784 214.272 -67.7109 97.3351Z" fill="#039BE5"/>
<path d="M-67.7109 122.92V427.433C16.2807 576.611 171.933 546.153 255.925 336.081C223.766 333.81 181.093 305.195 135.963 250.25C63.2387 276.202 -15.8784 233.763 -67.7109 122.92Z" fill="white"/>
<path d="M-67.7109 125.961V430.474C16.2807 579.652 171.933 549.194 255.925 339.122C223.766 336.851 181.093 308.236 135.963 253.291C63.2387 279.243 -15.8784 236.804 -67.7109 125.961Z" fill="#212121"/>
<path d="M-67.7109 125.68V423.817C16.2807 572.996 171.933 542.537 255.925 332.466C223.766 338.108 181.093 310.092 135.963 263.061C63.1354 289.66 -15.8784 244.449 -67.7109 125.68Z" fill="#039BE5"/>
<path d="M-67.7109 124.936V407.112C16.2807 556.29 183.448 570.958 255.925 315.76C223.766 331.759 181.093 317.751 135.963 281.076C63.1354 291.286 -15.8784 254.049 -67.7109 124.936Z" fill="white"/>
</g>
</g>
<rect x="49.6887" y="78.1204" width="55.9176" height="55.9176" rx="2.0952" stroke="#039BE5" stroke-width="0.299314"/>
<g clip-path="url(#clip0_622_11530)">
<path d="M54.9109 95.1309H53.2266V96.8152H54.9109V95.1309Z" fill="white"/>
<path d="M54.9109 101.869H53.2266V103.553H54.9109V101.869Z" fill="white"/>
<path d="M54.9109 103.553H53.2266V105.237H54.9109V103.553Z" fill="white"/>
<path d="M54.9109 105.236H53.2266V106.921H54.9109V105.236Z" fill="white"/>
<path d="M54.9109 106.922H53.2266V108.606H54.9109V106.922Z" fill="white"/>
<path d="M54.9109 108.605H53.2266V110.29H54.9109V108.605Z" fill="white"/>
<path d="M54.9109 110.289H53.2266V111.973H54.9109V110.289Z" fill="white"/>
<path d="M54.9109 111.975H53.2266V113.659H54.9109V111.975Z" fill="white"/>
<path d="M54.9109 115.344H53.2266V117.028H54.9109V115.344Z" fill="white"/>
<path d="M56.5984 96.8145H54.9141V98.4988H56.5984V96.8145Z" fill="white"/>
<path d="M56.5984 100.184H54.9141V101.868H56.5984V100.184Z" fill="white"/>
<path d="M56.5984 113.658H54.9141V115.343H56.5984V113.658Z" fill="white"/>
<path d="M58.2781 96.8145H56.5938V98.4988H58.2781V96.8145Z" fill="white"/>
<path d="M58.2781 100.184H56.5938V101.868H58.2781V100.184Z" fill="white"/>
<path d="M58.2781 101.869H56.5938V103.553H58.2781V101.869Z" fill="white"/>
<path d="M58.2781 106.922H56.5938V108.606H58.2781V106.922Z" fill="white"/>
<path d="M58.2781 108.605H56.5938V110.29H58.2781V108.605Z" fill="white"/>
<path d="M58.2781 113.658H56.5938V115.343H58.2781V113.658Z" fill="white"/>
<path d="M58.2781 115.344H56.5938V117.028H58.2781V115.344Z" fill="white"/>
<path d="M59.9656 98.5H58.2812V100.184H59.9656V98.5Z" fill="white"/>
<path d="M59.9656 100.184H58.2812V101.868H59.9656V100.184Z" fill="white"/>
<path d="M59.9656 101.869H58.2812V103.553H59.9656V101.869Z" fill="white"/>
<path d="M59.9656 108.605H58.2812V110.29H59.9656V108.605Z" fill="white"/>
<path d="M59.9656 110.289H58.2812V111.973H59.9656V110.289Z" fill="white"/>
<path d="M59.9656 113.658H58.2812V115.343H59.9656V113.658Z" fill="white"/>
<path d="M61.6453 95.1309H59.9609V96.8152H61.6453V95.1309Z" fill="white"/>
<path d="M61.6453 98.5H59.9609V100.184H61.6453V98.5Z" fill="white"/>
<path d="M61.6453 103.553H59.9609V105.237H61.6453V103.553Z" fill="white"/>
<path d="M61.6453 105.236H59.9609V106.921H61.6453V105.236Z" fill="white"/>
<path d="M61.6453 106.922H59.9609V108.606H61.6453V106.922Z" fill="white"/>
<path d="M61.6453 108.605H59.9609V110.29H61.6453V108.605Z" fill="white"/>
<path d="M61.6453 113.658H59.9609V115.343H61.6453V113.658Z" fill="white"/>
<path d="M63.3328 95.1309H61.6484V96.8152H63.3328V95.1309Z" fill="white"/>
<path d="M63.3328 98.5H61.6484V100.184H63.3328V98.5Z" fill="white"/>
<path d="M63.3328 101.869H61.6484V103.553H63.3328V101.869Z" fill="white"/>
<path d="M63.3328 105.236H61.6484V106.921H63.3328V105.236Z" fill="white"/>
<path d="M63.3328 106.922H61.6484V108.606H63.3328V106.922Z" fill="white"/>
<path d="M63.3328 108.605H61.6484V110.29H63.3328V108.605Z" fill="white"/>
<path d="M63.3328 111.975H61.6484V113.659H63.3328V111.975Z" fill="white"/>
<path d="M63.3328 115.344H61.6484V117.028H63.3328V115.344Z" fill="white"/>
<path d="M65.0203 95.1309H63.3359V96.8152H65.0203V95.1309Z" fill="white"/>
<path d="M65.0203 98.5H63.3359V100.184H65.0203V98.5Z" fill="white"/>
<path d="M65.0203 101.869H63.3359V103.553H65.0203V101.869Z" fill="white"/>
<path d="M65.0203 105.236H63.3359V106.921H65.0203V105.236Z" fill="white"/>
<path d="M65.0203 108.605H63.3359V110.29H65.0203V108.605Z" fill="white"/>
<path d="M65.0203 111.975H63.3359V113.659H65.0203V111.975Z" fill="white"/>
<path d="M65.0203 115.344H63.3359V117.028H65.0203V115.344Z" fill="white"/>
<path d="M66.7 96.8145H65.0156V98.4988H66.7V96.8145Z" fill="white"/>
<path d="M66.7 100.184H65.0156V101.868H66.7V100.184Z" fill="white"/>
<path d="M66.7 105.236H65.0156V106.921H66.7V105.236Z" fill="white"/>
<path d="M66.7 108.605H65.0156V110.29H66.7V108.605Z" fill="white"/>
<path d="M66.7 115.344H65.0156V117.028H66.7V115.344Z" fill="white"/>
<path d="M68.3875 83.3398H66.7031V85.0242H68.3875V83.3398Z" fill="white"/>
<path d="M68.3875 85.0254H66.7031V86.7097H68.3875V85.0254Z" fill="white"/>
<path d="M68.3875 86.709H66.7031V88.3933H68.3875V86.709Z" fill="white"/>
<path d="M68.3875 88.3945H66.7031V90.0789H68.3875V88.3945Z" fill="white"/>
<path d="M68.3875 90.0781H66.7031V91.7625H68.3875V90.0781Z" fill="white"/>
<path d="M68.3875 91.7617H66.7031V93.4461H68.3875V91.7617Z" fill="white"/>
<path d="M68.3875 93.4473H66.7031V95.1316H68.3875V93.4473Z" fill="white"/>
<path d="M68.3875 103.553H66.7031V105.237H68.3875V103.553Z" fill="white"/>
<path d="M68.3875 106.922H66.7031V108.606H68.3875V106.922Z" fill="white"/>
<path d="M68.3875 108.605H66.7031V110.29H68.3875V108.605Z" fill="white"/>
<path d="M68.3875 111.975H66.7031V113.659H68.3875V111.975Z" fill="white"/>
<path d="M68.3875 120.396H66.7031V122.081H68.3875V120.396Z" fill="white"/>
<path d="M68.3875 122.08H66.7031V123.764H68.3875V122.08Z" fill="white"/>
<path d="M68.3875 128.818H66.7031V130.503H68.3875V128.818Z" fill="white"/>
<path d="M70.0671 83.3398H68.3828V85.0242H70.0671V83.3398Z" fill="white"/>
<path d="M70.0671 86.709H68.3828V88.3933H70.0671V86.709Z" fill="white"/>
<path d="M70.0671 88.3945H68.3828V90.0789H70.0671V88.3945Z" fill="white"/>
<path d="M70.0671 93.4473H68.3828V95.1316H70.0671V93.4473Z" fill="white"/>
<path d="M70.0671 98.5H68.3828V100.184H70.0671V98.5Z" fill="white"/>
<path d="M70.0671 100.184H68.3828V101.868H70.0671V100.184Z" fill="white"/>
<path d="M70.0671 105.236H68.3828V106.921H70.0671V105.236Z" fill="white"/>
<path d="M70.0671 108.605H68.3828V110.29H70.0671V108.605Z" fill="white"/>
<path d="M70.0671 120.396H68.3828V122.081H70.0671V120.396Z" fill="white"/>
<path d="M70.0671 122.08H68.3828V123.764H70.0671V122.08Z" fill="white"/>
<path d="M70.0671 123.764H68.3828V125.448H70.0671V123.764Z" fill="white"/>
<path d="M70.0671 125.449H68.3828V127.134H70.0671V125.449Z" fill="white"/>
<path d="M70.0671 128.818H68.3828V130.503H70.0671V128.818Z" fill="white"/>
<path d="M71.7546 83.3398H70.0703V85.0242H71.7546V83.3398Z" fill="white"/>
<path d="M71.7546 86.709H70.0703V88.3933H71.7546V86.709Z" fill="white"/>
<path d="M71.7546 90.0781H70.0703V91.7625H71.7546V90.0781Z" fill="white"/>
<path d="M71.7546 91.7617H70.0703V93.4461H71.7546V91.7617Z" fill="white"/>
<path d="M71.7546 95.1309H70.0703V96.8152H71.7546V95.1309Z" fill="white"/>
<path d="M71.7546 96.8145H70.0703V98.4988H71.7546V96.8145Z" fill="white"/>
<path d="M71.7546 98.5H70.0703V100.184H71.7546V98.5Z" fill="white"/>
<path d="M71.7546 100.184H70.0703V101.868H71.7546V100.184Z" fill="white"/>
<path d="M71.7546 103.553H70.0703V105.237H71.7546V103.553Z" fill="white"/>
<path d="M71.7546 105.236H70.0703V106.921H71.7546V105.236Z" fill="white"/>
<path d="M71.7546 111.975H70.0703V113.659H71.7546V111.975Z" fill="white"/>
<path d="M71.7546 115.344H70.0703V117.028H71.7546V115.344Z" fill="white"/>
<path d="M71.7546 117.027H70.0703V118.712H71.7546V117.027Z" fill="white"/>
<path d="M71.7546 118.711H70.0703V120.395H71.7546V118.711Z" fill="white"/>
<path d="M71.7546 120.396H70.0703V122.081H71.7546V120.396Z" fill="white"/>
<path d="M71.7546 123.764H70.0703V125.448H71.7546V123.764Z" fill="white"/>
<path d="M71.7546 125.449H70.0703V127.134H71.7546V125.449Z" fill="white"/>
<path d="M73.4421 81.6562H71.7578V83.3406H73.4421V81.6562Z" fill="white"/>
<path d="M73.4421 83.3398H71.7578V85.0242H73.4421V83.3398Z" fill="white"/>
<path d="M73.4421 86.709H71.7578V88.3933H73.4421V86.709Z" fill="white"/>
<path d="M73.4421 93.4473H71.7578V95.1316H73.4421V93.4473Z" fill="white"/>
<path d="M73.4421 96.8145H71.7578V98.4988H73.4421V96.8145Z" fill="white"/>
<path d="M73.4421 98.5H71.7578V100.184H73.4421V98.5Z" fill="white"/>
<path d="M73.4421 103.553H71.7578V105.237H73.4421V103.553Z" fill="white"/>
<path d="M73.4421 108.605H71.7578V110.29H73.4421V108.605Z" fill="white"/>
<path d="M73.4421 117.027H71.7578V118.712H73.4421V117.027Z" fill="white"/>
<path d="M73.4421 118.711H71.7578V120.395H73.4421V118.711Z" fill="white"/>
<path d="M73.4421 120.396H71.7578V122.081H73.4421V120.396Z" fill="white"/>
<path d="M73.4421 122.08H71.7578V123.764H73.4421V122.08Z" fill="white"/>
<path d="M73.4421 127.133H71.7578V128.817H73.4421V127.133Z" fill="white"/>
<path d="M75.1218 83.3398H73.4375V85.0242H75.1218V83.3398Z" fill="white"/>
<path d="M75.1218 86.709H73.4375V88.3933H75.1218V86.709Z" fill="white"/>
<path d="M75.1218 88.3945H73.4375V90.0789H75.1218V88.3945Z" fill="white"/>
<path d="M75.1218 91.7617H73.4375V93.4461H75.1218V91.7617Z" fill="white"/>
<path d="M75.1218 96.8145H73.4375V98.4988H75.1218V96.8145Z" fill="white"/>
<path d="M75.1218 100.184H73.4375V101.868H75.1218V100.184Z" fill="white"/>
<path d="M75.1218 108.605H73.4375V110.29H75.1218V108.605Z" fill="white"/>
<path d="M75.1218 110.289H73.4375V111.973H75.1218V110.289Z" fill="white"/>
<path d="M75.1218 117.027H73.4375V118.712H75.1218V117.027Z" fill="white"/>
<path d="M75.1218 120.396H73.4375V122.081H75.1218V120.396Z" fill="white"/>
<path d="M75.1218 123.764H73.4375V125.448H75.1218V123.764Z" fill="white"/>
<path d="M75.1218 125.449H73.4375V127.134H75.1218V125.449Z" fill="white"/>
<path d="M75.1218 127.133H73.4375V128.817H75.1218V127.133Z" fill="white"/>
<path d="M75.1218 128.818H73.4375V130.503H75.1218V128.818Z" fill="white"/>
<path d="M76.8093 85.0254H75.125V86.7097H76.8093V85.0254Z" fill="white"/>
<path d="M76.8093 86.709H75.125V88.3933H76.8093V86.709Z" fill="white"/>
<path d="M76.8093 88.3945H75.125V90.0789H76.8093V88.3945Z" fill="white"/>
<path d="M76.8093 90.0781H75.125V91.7625H76.8093V90.0781Z" fill="white"/>
<path d="M76.8093 96.8145H75.125V98.4988H76.8093V96.8145Z" fill="white"/>
<path d="M76.8093 103.553H75.125V105.237H76.8093V103.553Z" fill="white"/>
<path d="M76.8093 105.236H75.125V106.921H76.8093V105.236Z" fill="white"/>
<path d="M76.8093 106.922H75.125V108.606H76.8093V106.922Z" fill="white"/>
<path d="M76.8093 108.605H75.125V110.29H76.8093V108.605Z" fill="white"/>
<path d="M76.8093 110.289H75.125V111.973H76.8093V110.289Z" fill="white"/>
<path d="M76.8093 113.658H75.125V115.343H76.8093V113.658Z" fill="white"/>
<path d="M76.8093 115.344H75.125V117.028H76.8093V115.344Z" fill="white"/>
<path d="M76.8093 117.027H75.125V118.712H76.8093V117.027Z" fill="white"/>
<path d="M76.8093 118.711H75.125V120.395H76.8093V118.711Z" fill="white"/>
<path d="M76.8093 122.08H75.125V123.764H76.8093V122.08Z" fill="white"/>
<path d="M76.8093 123.764H75.125V125.448H76.8093V123.764Z" fill="white"/>
<path d="M76.8093 127.133H75.125V128.817H76.8093V127.133Z" fill="white"/>
<path d="M76.8093 128.818H75.125V130.503H76.8093V128.818Z" fill="white"/>
<path d="M78.489 83.3398H76.8047V85.0242H78.489V83.3398Z" fill="white"/>
<path d="M78.489 85.0254H76.8047V86.7097H78.489V85.0254Z" fill="white"/>
<path d="M78.489 88.3945H76.8047V90.0789H78.489V88.3945Z" fill="white"/>
<path d="M78.489 91.7617H76.8047V93.4461H78.489V91.7617Z" fill="white"/>
<path d="M78.489 93.4473H76.8047V95.1316H78.489V93.4473Z" fill="white"/>
<path d="M78.489 95.1309H76.8047V96.8152H78.489V95.1309Z" fill="white"/>
<path d="M78.489 100.184H76.8047V101.868H78.489V100.184Z" fill="white"/>
<path d="M78.489 101.869H76.8047V103.553H78.489V101.869Z" fill="white"/>
<path d="M78.489 103.553H76.8047V105.237H78.489V103.553Z" fill="white"/>
<path d="M78.489 105.236H76.8047V106.921H78.489V105.236Z" fill="white"/>
<path d="M78.489 106.922H76.8047V108.606H78.489V106.922Z" fill="white"/>
<path d="M78.489 110.289H76.8047V111.973H78.489V110.289Z" fill="white"/>
<path d="M78.489 115.344H76.8047V117.028H78.489V115.344Z" fill="white"/>
<path d="M78.489 117.027H76.8047V118.712H78.489V117.027Z" fill="white"/>
<path d="M78.489 118.711H76.8047V120.395H78.489V118.711Z" fill="white"/>
<path d="M78.489 120.396H76.8047V122.081H78.489V120.396Z" fill="white"/>
<path d="M78.489 127.133H76.8047V128.817H78.489V127.133Z" fill="white"/>
<path d="M80.1765 93.4473H78.4922V95.1316H80.1765V93.4473Z" fill="white"/>
<path d="M80.1765 95.1309H78.4922V96.8152H80.1765V95.1309Z" fill="white"/>
<path d="M80.1765 101.869H78.4922V103.553H80.1765V101.869Z" fill="white"/>
<path d="M80.1765 105.236H78.4922V106.921H80.1765V105.236Z" fill="white"/>
<path d="M80.1765 110.289H78.4922V111.973H80.1765V110.289Z" fill="white"/>
<path d="M80.1765 111.975H78.4922V113.659H80.1765V111.975Z" fill="white"/>
<path d="M80.1765 115.344H78.4922V117.028H80.1765V115.344Z" fill="white"/>
<path d="M80.1765 117.027H78.4922V118.712H80.1765V117.027Z" fill="white"/>
<path d="M80.1765 122.08H78.4922V123.764H80.1765V122.08Z" fill="white"/>
<path d="M80.1765 123.764H78.4922V125.448H80.1765V123.764Z" fill="white"/>
<path d="M81.864 81.6562H80.1797V83.3406H81.864V81.6562Z" fill="white"/>
<path d="M81.864 83.3398H80.1797V85.0242H81.864V83.3398Z" fill="white"/>
<path d="M81.864 88.3945H80.1797V90.0789H81.864V88.3945Z" fill="white"/>
<path d="M81.864 91.7617H80.1797V93.4461H81.864V91.7617Z" fill="white"/>
<path d="M81.864 93.4473H80.1797V95.1316H81.864V93.4473Z" fill="white"/>
<path d="M81.864 95.1309H80.1797V96.8152H81.864V95.1309Z" fill="white"/>
<path d="M81.864 96.8145H80.1797V98.4988H81.864V96.8145Z" fill="white"/>
<path d="M81.864 98.5H80.1797V100.184H81.864V98.5Z" fill="white"/>
<path d="M81.864 100.184H80.1797V101.868H81.864V100.184Z" fill="white"/>
<path d="M81.864 108.605H80.1797V110.29H81.864V108.605Z" fill="white"/>
<path d="M81.864 113.658H80.1797V115.343H81.864V113.658Z" fill="white"/>
<path d="M81.864 115.344H80.1797V117.028H81.864V115.344Z" fill="white"/>
<path d="M81.864 120.396H80.1797V122.081H81.864V120.396Z" fill="white"/>
<path d="M81.864 123.764H80.1797V125.448H81.864V123.764Z" fill="white"/>
<path d="M81.864 125.449H80.1797V127.134H81.864V125.449Z" fill="white"/>
<path d="M81.864 128.818H80.1797V130.503H81.864V128.818Z" fill="white"/>
<path d="M83.5437 81.6562H81.8594V83.3406H83.5437V81.6562Z" fill="white"/>
<path d="M83.5437 83.3398H81.8594V85.0242H83.5437V83.3398Z" fill="white"/>
<path d="M83.5437 85.0254H81.8594V86.7097H83.5437V85.0254Z" fill="white"/>
<path d="M83.5437 88.3945H81.8594V90.0789H83.5437V88.3945Z" fill="white"/>
<path d="M83.5437 93.4473H81.8594V95.1316H83.5437V93.4473Z" fill="white"/>
<path d="M83.5437 96.8145H81.8594V98.4988H83.5437V96.8145Z" fill="white"/>
<path d="M83.5437 100.184H81.8594V101.868H83.5437V100.184Z" fill="white"/>
<path d="M83.5437 106.922H81.8594V108.606H83.5437V106.922Z" fill="white"/>
<path d="M83.5437 111.975H81.8594V113.659H83.5437V111.975Z" fill="white"/>
<path d="M83.5437 113.658H81.8594V115.343H83.5437V113.658Z" fill="white"/>
<path d="M83.5437 115.344H81.8594V117.028H83.5437V115.344Z" fill="white"/>
<path d="M83.5437 122.08H81.8594V123.764H83.5437V122.08Z" fill="white"/>
<path d="M83.5437 127.133H81.8594V128.817H83.5437V127.133Z" fill="white"/>
<path d="M83.5437 128.818H81.8594V130.503H83.5437V128.818Z" fill="white"/>
<path d="M85.2312 81.6562H83.5469V83.3406H85.2312V81.6562Z" fill="white"/>
<path d="M85.2312 85.0254H83.5469V86.7097H85.2312V85.0254Z" fill="white"/>
<path d="M85.2312 91.7617H83.5469V93.4461H85.2312V91.7617Z" fill="white"/>
<path d="M85.2312 95.1309H83.5469V96.8152H85.2312V95.1309Z" fill="white"/>
<path d="M85.2312 98.5H83.5469V100.184H85.2312V98.5Z" fill="white"/>
<path d="M85.2312 100.184H83.5469V101.868H85.2312V100.184Z" fill="white"/>
<path d="M85.2312 103.553H83.5469V105.237H85.2312V103.553Z" fill="white"/>
<path d="M85.2312 106.922H83.5469V108.606H85.2312V106.922Z" fill="white"/>
<path d="M85.2312 108.605H83.5469V110.29H85.2312V108.605Z" fill="white"/>
<path d="M85.2312 110.289H83.5469V111.973H85.2312V110.289Z" fill="white"/>
<path d="M85.2312 111.975H83.5469V113.659H85.2312V111.975Z" fill="white"/>
<path d="M85.2312 118.711H83.5469V120.395H85.2312V118.711Z" fill="white"/>
<path d="M85.2312 120.396H83.5469V122.081H85.2312V120.396Z" fill="white"/>
<path d="M85.2312 122.08H83.5469V123.764H85.2312V122.08Z" fill="white"/>
<path d="M85.2312 125.449H83.5469V127.134H85.2312V125.449Z" fill="white"/>
<path d="M86.9109 81.6562H85.2266V83.3406H86.9109V81.6562Z" fill="white"/>
<path d="M86.9109 86.709H85.2266V88.3933H86.9109V86.709Z" fill="white"/>
<path d="M86.9109 90.0781H85.2266V91.7625H86.9109V90.0781Z" fill="white"/>
<path d="M86.9109 93.4473H85.2266V95.1316H86.9109V93.4473Z" fill="white"/>
<path d="M86.9109 95.1309H85.2266V96.8152H86.9109V95.1309Z" fill="white"/>
<path d="M86.9109 98.5H85.2266V100.184H86.9109V98.5Z" fill="white"/>
<path d="M86.9109 100.184H85.2266V101.868H86.9109V100.184Z" fill="white"/>
<path d="M86.9109 101.869H85.2266V103.553H86.9109V101.869Z" fill="white"/>
<path d="M86.9109 103.553H85.2266V105.237H86.9109V103.553Z" fill="white"/>
<path d="M86.9109 106.922H85.2266V108.606H86.9109V106.922Z" fill="white"/>
<path d="M86.9109 111.975H85.2266V113.659H86.9109V111.975Z" fill="white"/>
<path d="M86.9109 115.344H85.2266V117.028H86.9109V115.344Z" fill="white"/>
<path d="M86.9109 118.711H85.2266V120.395H86.9109V118.711Z" fill="white"/>
<path d="M86.9109 127.133H85.2266V128.817H86.9109V127.133Z" fill="white"/>
<path d="M86.9109 128.818H85.2266V130.503H86.9109V128.818Z" fill="white"/>
<path d="M88.5984 81.6562H86.9141V83.3406H88.5984V81.6562Z" fill="white"/>
<path d="M88.5984 85.0254H86.9141V86.7097H88.5984V85.0254Z" fill="white"/>
<path d="M88.5984 86.709H86.9141V88.3933H88.5984V86.709Z" fill="white"/>
<path d="M88.5984 88.3945H86.9141V90.0789H88.5984V88.3945Z" fill="white"/>
<path d="M88.5984 90.0781H86.9141V91.7625H88.5984V90.0781Z" fill="white"/>
<path d="M88.5984 91.7617H86.9141V93.4461H88.5984V91.7617Z" fill="white"/>
<path d="M88.5984 95.1309H86.9141V96.8152H88.5984V95.1309Z" fill="white"/>
<path d="M88.5984 96.8145H86.9141V98.4988H88.5984V96.8145Z" fill="white"/>
<path d="M88.5984 98.5H86.9141V100.184H88.5984V98.5Z" fill="white"/>
<path d="M88.5984 101.869H86.9141V103.553H88.5984V101.869Z" fill="white"/>
<path d="M88.5984 105.236H86.9141V106.921H88.5984V105.236Z" fill="white"/>
<path d="M88.5984 106.922H86.9141V108.606H88.5984V106.922Z" fill="white"/>
<path d="M88.5984 110.289H86.9141V111.973H88.5984V110.289Z" fill="white"/>
<path d="M88.5984 111.975H86.9141V113.659H88.5984V111.975Z" fill="white"/>
<path d="M88.5984 113.658H86.9141V115.343H88.5984V113.658Z" fill="white"/>
<path d="M88.5984 115.344H86.9141V117.028H88.5984V115.344Z" fill="white"/>
<path d="M88.5984 117.027H86.9141V118.712H88.5984V117.027Z" fill="white"/>
<path d="M88.5984 118.711H86.9141V120.395H88.5984V118.711Z" fill="white"/>
<path d="M88.5984 120.396H86.9141V122.081H88.5984V120.396Z" fill="white"/>
<path d="M88.5984 122.08H86.9141V123.764H88.5984V122.08Z" fill="white"/>
<path d="M88.5984 123.764H86.9141V125.448H88.5984V123.764Z" fill="white"/>
<path d="M88.5984 125.449H86.9141V127.134H88.5984V125.449Z" fill="white"/>
<path d="M88.5984 127.133H86.9141V128.817H88.5984V127.133Z" fill="white"/>
<path d="M88.5984 128.818H86.9141V130.503H88.5984V128.818Z" fill="white"/>
<path d="M90.2781 95.1309H88.5938V96.8152H90.2781V95.1309Z" fill="white"/>
<path d="M90.2781 96.8145H88.5938V98.4988H90.2781V96.8145Z" fill="white"/>
<path d="M90.2781 98.5H88.5938V100.184H90.2781V98.5Z" fill="white"/>
<path d="M90.2781 101.869H88.5938V103.553H90.2781V101.869Z" fill="white"/>
<path d="M90.2781 103.553H88.5938V105.237H90.2781V103.553Z" fill="white"/>
<path d="M90.2781 108.605H88.5938V110.29H90.2781V108.605Z" fill="white"/>
<path d="M90.2781 111.975H88.5938V113.659H90.2781V111.975Z" fill="white"/>
<path d="M90.2781 115.344H88.5938V117.028H90.2781V115.344Z" fill="white"/>
<path d="M90.2781 122.08H88.5938V123.764H90.2781V122.08Z" fill="white"/>
<path d="M90.2781 123.764H88.5938V125.448H90.2781V123.764Z" fill="white"/>
<path d="M90.2781 127.133H88.5938V128.817H90.2781V127.133Z" fill="white"/>
<path d="M90.2781 128.818H88.5938V130.503H90.2781V128.818Z" fill="white"/>
<path d="M91.9656 95.1309H90.2812V96.8152H91.9656V95.1309Z" fill="white"/>
<path d="M91.9656 96.8145H90.2812V98.4988H91.9656V96.8145Z" fill="white"/>
<path d="M91.9656 103.553H90.2812V105.237H91.9656V103.553Z" fill="white"/>
<path d="M91.9656 105.236H90.2812V106.921H91.9656V105.236Z" fill="white"/>
<path d="M91.9656 106.922H90.2812V108.606H91.9656V106.922Z" fill="white"/>
<path d="M91.9656 108.605H90.2812V110.29H91.9656V108.605Z" fill="white"/>
<path d="M91.9656 111.975H90.2812V113.659H91.9656V111.975Z" fill="white"/>
<path d="M91.9656 113.658H90.2812V115.343H91.9656V113.658Z" fill="white"/>
<path d="M91.9656 115.344H90.2812V117.028H91.9656V115.344Z" fill="white"/>
<path d="M91.9656 118.711H90.2812V120.395H91.9656V118.711Z" fill="white"/>
<path d="M91.9656 122.08H90.2812V123.764H91.9656V122.08Z" fill="white"/>
<path d="M93.6531 95.1309H91.9688V96.8152H93.6531V95.1309Z" fill="white"/>
<path d="M93.6531 96.8145H91.9688V98.4988H93.6531V96.8145Z" fill="white"/>
<path d="M93.6531 98.5H91.9688V100.184H93.6531V98.5Z" fill="white"/>
<path d="M93.6531 103.553H91.9688V105.237H93.6531V103.553Z" fill="white"/>
<path d="M93.6531 105.236H91.9688V106.921H93.6531V105.236Z" fill="white"/>
<path d="M93.6531 113.658H91.9688V115.343H93.6531V113.658Z" fill="white"/>
<path d="M93.6531 115.344H91.9688V117.028H93.6531V115.344Z" fill="white"/>
<path d="M93.6531 122.08H91.9688V123.764H93.6531V122.08Z" fill="white"/>
<path d="M93.6531 123.764H91.9688V125.448H93.6531V123.764Z" fill="white"/>
<path d="M93.6531 128.818H91.9688V130.503H93.6531V128.818Z" fill="white"/>
<path d="M95.3328 95.1309H93.6484V96.8152H95.3328V95.1309Z" fill="white"/>
<path d="M95.3328 100.184H93.6484V101.868H95.3328V100.184Z" fill="white"/>
<path d="M95.3328 101.869H93.6484V103.553H95.3328V101.869Z" fill="white"/>
<path d="M95.3328 103.553H93.6484V105.237H95.3328V103.553Z" fill="white"/>
<path d="M95.3328 106.922H93.6484V108.606H95.3328V106.922Z" fill="white"/>
<path d="M95.3328 111.975H93.6484V113.659H95.3328V111.975Z" fill="white"/>
<path d="M95.3328 115.344H93.6484V117.028H95.3328V115.344Z" fill="white"/>
<path d="M95.3328 117.027H93.6484V118.712H95.3328V117.027Z" fill="white"/>
<path d="M95.3328 118.711H93.6484V120.395H95.3328V118.711Z" fill="white"/>
<path d="M95.3328 120.396H93.6484V122.081H95.3328V120.396Z" fill="white"/>
<path d="M95.3328 122.08H93.6484V123.764H95.3328V122.08Z" fill="white"/>
<path d="M95.3328 123.764H93.6484V125.448H95.3328V123.764Z" fill="white"/>
<path d="M95.3328 125.449H93.6484V127.134H95.3328V125.449Z" fill="white"/>
<path d="M95.3328 128.818H93.6484V130.503H95.3328V128.818Z" fill="white"/>
<path d="M97.0203 95.1309H95.3359V96.8152H97.0203V95.1309Z" fill="white"/>
<path d="M97.0203 96.8145H95.3359V98.4988H97.0203V96.8145Z" fill="white"/>
<path d="M97.0203 98.5H95.3359V100.184H97.0203V98.5Z" fill="white"/>
<path d="M97.0203 101.869H95.3359V103.553H97.0203V101.869Z" fill="white"/>
<path d="M97.0203 105.236H95.3359V106.921H97.0203V105.236Z" fill="white"/>
<path d="M97.0203 106.922H95.3359V108.606H97.0203V106.922Z" fill="white"/>
<path d="M97.0203 108.605H95.3359V110.29H97.0203V108.605Z" fill="white"/>
<path d="M97.0203 110.289H95.3359V111.973H97.0203V110.289Z" fill="white"/>
<path d="M97.0203 113.658H95.3359V115.343H97.0203V113.658Z" fill="white"/>
<path d="M97.0203 115.344H95.3359V117.028H97.0203V115.344Z" fill="white"/>
<path d="M97.0203 117.027H95.3359V118.712H97.0203V117.027Z" fill="white"/>
<path d="M97.0203 120.396H95.3359V122.081H97.0203V120.396Z" fill="white"/>
<path d="M97.0203 123.764H95.3359V125.448H97.0203V123.764Z" fill="white"/>
<path d="M98.7 95.1309H97.0156V96.8152H98.7V95.1309Z" fill="white"/>
<path d="M98.7 103.553H97.0156V105.237H98.7V103.553Z" fill="white"/>
<path d="M98.7 105.236H97.0156V106.921H98.7V105.236Z" fill="white"/>
<path d="M98.7 110.289H97.0156V111.973H98.7V110.289Z" fill="white"/>
<path d="M98.7 113.658H97.0156V115.343H98.7V113.658Z" fill="white"/>
<path d="M98.7 115.344H97.0156V117.028H98.7V115.344Z" fill="white"/>
<path d="M98.7 117.027H97.0156V118.712H98.7V117.027Z" fill="white"/>
<path d="M98.7 118.711H97.0156V120.395H98.7V118.711Z" fill="white"/>
<path d="M98.7 120.396H97.0156V122.081H98.7V120.396Z" fill="white"/>
<path d="M98.7 122.08H97.0156V123.764H98.7V122.08Z" fill="white"/>
<path d="M98.7 127.133H97.0156V128.817H98.7V127.133Z" fill="white"/>
<path d="M100.387 95.1309H98.7031V96.8152H100.387V95.1309Z" fill="white"/>
<path d="M100.387 96.8145H98.7031V98.4988H100.387V96.8145Z" fill="white"/>
<path d="M100.387 98.5H98.7031V100.184H100.387V98.5Z" fill="white"/>
<path d="M100.387 100.184H98.7031V101.868H100.387V100.184Z" fill="white"/>
<path d="M100.387 101.869H98.7031V103.553H100.387V101.869Z" fill="white"/>
<path d="M100.387 105.236H98.7031V106.921H100.387V105.236Z" fill="white"/>
<path d="M100.387 108.605H98.7031V110.29H100.387V108.605Z" fill="white"/>
<path d="M100.387 111.975H98.7031V113.659H100.387V111.975Z" fill="white"/>
<path d="M100.387 117.027H98.7031V118.712H100.387V117.027Z" fill="white"/>
<path d="M100.387 122.08H98.7031V123.764H100.387V122.08Z" fill="white"/>
<path d="M100.387 123.764H98.7031V125.448H100.387V123.764Z" fill="white"/>
<path d="M100.387 127.133H98.7031V128.817H100.387V127.133Z" fill="white"/>
<path d="M102.075 98.5H100.391V100.184H102.075V98.5Z" fill="white"/>
<path d="M102.075 105.236H100.391V106.921H102.075V105.236Z" fill="white"/>
<path d="M102.075 110.289H100.391V111.973H102.075V110.289Z" fill="white"/>
<path d="M102.075 113.658H100.391V115.343H102.075V113.658Z" fill="white"/>
<path d="M102.075 117.027H100.391V118.712H102.075V117.027Z" fill="white"/>
<path d="M102.075 118.711H100.391V120.395H102.075V118.711Z" fill="white"/>
<path d="M102.075 122.08H100.391V123.764H102.075V122.08Z" fill="white"/>
<path d="M102.075 123.764H100.391V125.448H102.075V123.764Z" fill="white"/>
<path d="M102.075 125.449H100.391V127.134H102.075V125.449Z" fill="white"/>
<path d="M54.9109 81.6562H53.2266V83.3406H54.9109V81.6562Z" fill="white"/>
<path d="M54.9109 83.3398H53.2266V85.0242H54.9109V83.3398Z" fill="white"/>
<path d="M54.9109 85.0254H53.2266V86.7097H54.9109V85.0254Z" fill="white"/>
<path d="M54.9109 86.709H53.2266V88.3933H54.9109V86.709Z" fill="white"/>
<path d="M54.9109 88.3945H53.2266V90.0789H54.9109V88.3945Z" fill="white"/>
<path d="M54.9109 90.0781H53.2266V91.7625H54.9109V90.0781Z" fill="white"/>
<path d="M54.9109 91.7617H53.2266V93.4461H54.9109V91.7617Z" fill="white"/>
<path d="M56.5984 81.6562H54.9141V83.3406H56.5984V81.6562Z" fill="white"/>
<path d="M56.5984 91.7617H54.9141V93.4461H56.5984V91.7617Z" fill="white"/>
<path d="M58.2781 81.6562H56.5938V83.3406H58.2781V81.6562Z" fill="white"/>
<path d="M58.2781 91.7617H56.5938V93.4461H58.2781V91.7617Z" fill="white"/>
<path d="M59.9656 81.6562H58.2812V83.3406H59.9656V81.6562Z" fill="white"/>
<path d="M59.9656 91.7617H58.2812V93.4461H59.9656V91.7617Z" fill="white"/>
<path d="M61.6453 81.6562H59.9609V83.3406H61.6453V81.6562Z" fill="white"/>
<path d="M61.6453 91.7617H59.9609V93.4461H61.6453V91.7617Z" fill="white"/>
<path d="M63.3328 81.6562H61.6484V83.3406H63.3328V81.6562Z" fill="white"/>
<path d="M63.3328 91.7617H61.6484V93.4461H63.3328V91.7617Z" fill="white"/>
<path d="M65.0203 81.6562H63.3359V83.3406H65.0203V81.6562Z" fill="white"/>
<path d="M65.0203 83.3398H63.3359V85.0242H65.0203V83.3398Z" fill="white"/>
<path d="M65.0203 85.0254H63.3359V86.7097H65.0203V85.0254Z" fill="white"/>
<path d="M65.0203 86.709H63.3359V88.3933H65.0203V86.709Z" fill="white"/>
<path d="M65.0203 88.3945H63.3359V90.0789H65.0203V88.3945Z" fill="white"/>
<path d="M65.0203 90.0781H63.3359V91.7625H65.0203V90.0781Z" fill="white"/>
<path d="M65.0203 91.7617H63.3359V93.4461H65.0203V91.7617Z" fill="white"/>
<path d="M58.2781 85.0254H56.5938V86.7097H58.2781V85.0254Z" fill="white"/>
<path d="M58.2781 86.709H56.5938V88.3933H58.2781V86.709Z" fill="white"/>
<path d="M58.2781 88.3945H56.5938V90.0789H58.2781V88.3945Z" fill="white"/>
<path d="M59.9656 85.0254H58.2812V86.7097H59.9656V85.0254Z" fill="white"/>
<path d="M59.9656 86.709H58.2812V88.3933H59.9656V86.709Z" fill="white"/>
<path d="M59.9656 88.3945H58.2812V90.0789H59.9656V88.3945Z" fill="white"/>
<path d="M61.6453 85.0254H59.9609V86.7097H61.6453V85.0254Z" fill="white"/>
<path d="M61.6453 86.709H59.9609V88.3933H61.6453V86.709Z" fill="white"/>
<path d="M61.6453 88.3945H59.9609V90.0789H61.6453V88.3945Z" fill="white"/>
<path d="M91.9656 81.6562H90.2812V83.3406H91.9656V81.6562Z" fill="white"/>
<path d="M91.9656 83.3398H90.2812V85.0242H91.9656V83.3398Z" fill="white"/>
<path d="M91.9656 85.0254H90.2812V86.7097H91.9656V85.0254Z" fill="white"/>
<path d="M91.9656 86.709H90.2812V88.3933H91.9656V86.709Z" fill="white"/>
<path d="M91.9656 88.3945H90.2812V90.0789H91.9656V88.3945Z" fill="white"/>
<path d="M91.9656 90.0781H90.2812V91.7625H91.9656V90.0781Z" fill="white"/>
<path d="M91.9656 91.7617H90.2812V93.4461H91.9656V91.7617Z" fill="white"/>
<path d="M93.6531 81.6562H91.9688V83.3406H93.6531V81.6562Z" fill="white"/>
<path d="M93.6531 91.7617H91.9688V93.4461H93.6531V91.7617Z" fill="white"/>
<path d="M95.3328 81.6562H93.6484V83.3406H95.3328V81.6562Z" fill="white"/>
<path d="M95.3328 91.7617H93.6484V93.4461H95.3328V91.7617Z" fill="white"/>
<path d="M97.0203 81.6562H95.3359V83.3406H97.0203V81.6562Z" fill="white"/>
<path d="M97.0203 91.7617H95.3359V93.4461H97.0203V91.7617Z" fill="white"/>
<path d="M98.7 81.6562H97.0156V83.3406H98.7V81.6562Z" fill="white"/>
<path d="M98.7 91.7617H97.0156V93.4461H98.7V91.7617Z" fill="white"/>
<path d="M100.387 81.6562H98.7031V83.3406H100.387V81.6562Z" fill="white"/>
<path d="M100.387 91.7617H98.7031V93.4461H100.387V91.7617Z" fill="white"/>
<path d="M102.075 81.6562H100.391V83.3406H102.075V81.6562Z" fill="white"/>
<path d="M102.075 83.3398H100.391V85.0242H102.075V83.3398Z" fill="white"/>
<path d="M102.075 85.0254H100.391V86.7097H102.075V85.0254Z" fill="white"/>
<path d="M102.075 86.709H100.391V88.3933H102.075V86.709Z" fill="white"/>
<path d="M102.075 88.3945H100.391V90.0789H102.075V88.3945Z" fill="white"/>
<path d="M102.075 90.0781H100.391V91.7625H102.075V90.0781Z" fill="white"/>
<path d="M102.075 91.7617H100.391V93.4461H102.075V91.7617Z" fill="white"/>
<path d="M95.3328 85.0254H93.6484V86.7097H95.3328V85.0254Z" fill="white"/>
<path d="M95.3328 86.709H93.6484V88.3933H95.3328V86.709Z" fill="white"/>
<path d="M95.3328 88.3945H93.6484V90.0789H95.3328V88.3945Z" fill="white"/>
<path d="M97.0203 85.0254H95.3359V86.7097H97.0203V85.0254Z" fill="white"/>
<path d="M97.0203 86.709H95.3359V88.3933H97.0203V86.709Z" fill="white"/>
<path d="M97.0203 88.3945H95.3359V90.0789H97.0203V88.3945Z" fill="white"/>
<path d="M98.7 85.0254H97.0156V86.7097H98.7V85.0254Z" fill="white"/>
<path d="M98.7 86.709H97.0156V88.3933H98.7V86.709Z" fill="white"/>
<path d="M98.7 88.3945H97.0156V90.0789H98.7V88.3945Z" fill="white"/>
<path d="M54.9109 118.713H53.2266V120.397H54.9109V118.713Z" fill="white"/>
<path d="M54.9109 120.396H53.2266V122.081H54.9109V120.396Z" fill="white"/>
<path d="M54.9109 122.082H53.2266V123.766H54.9109V122.082Z" fill="white"/>
<path d="M54.9109 123.766H53.2266V125.45H54.9109V123.766Z" fill="white"/>
<path d="M54.9109 125.451H53.2266V127.136H54.9109V125.451Z" fill="white"/>
<path d="M54.9109 127.135H53.2266V128.819H54.9109V127.135Z" fill="white"/>
<path d="M54.9109 128.818H53.2266V130.503H54.9109V128.818Z" fill="white"/>
<path d="M56.5984 118.713H54.9141V120.397H56.5984V118.713Z" fill="white"/>
<path d="M56.5984 128.818H54.9141V130.503H56.5984V128.818Z" fill="white"/>
<path d="M58.2781 118.713H56.5938V120.397H58.2781V118.713Z" fill="white"/>
<path d="M58.2781 128.818H56.5938V130.503H58.2781V128.818Z" fill="white"/>
<path d="M59.9656 118.713H58.2812V120.397H59.9656V118.713Z" fill="white"/>
<path d="M59.9656 128.818H58.2812V130.503H59.9656V128.818Z" fill="white"/>
<path d="M61.6453 118.713H59.9609V120.397H61.6453V118.713Z" fill="white"/>
<path d="M61.6453 128.818H59.9609V130.503H61.6453V128.818Z" fill="white"/>
<path d="M63.3328 118.713H61.6484V120.397H63.3328V118.713Z" fill="white"/>
<path d="M63.3328 128.818H61.6484V130.503H63.3328V128.818Z" fill="white"/>
<path d="M65.0203 118.713H63.3359V120.397H65.0203V118.713Z" fill="white"/>
<path d="M65.0203 120.396H63.3359V122.081H65.0203V120.396Z" fill="white"/>
<path d="M65.0203 122.082H63.3359V123.766H65.0203V122.082Z" fill="white"/>
<path d="M65.0203 123.766H63.3359V125.45H65.0203V123.766Z" fill="white"/>
<path d="M65.0203 125.451H63.3359V127.136H65.0203V125.451Z" fill="white"/>
<path d="M65.0203 127.135H63.3359V128.819H65.0203V127.135Z" fill="white"/>
<path d="M65.0203 128.818H63.3359V130.503H65.0203V128.818Z" fill="white"/>
<path d="M58.2781 122.08H56.5938V123.764H58.2781V122.08Z" fill="white"/>
<path d="M58.2781 123.764H56.5938V125.448H58.2781V123.764Z" fill="white"/>
<path d="M58.2781 125.449H56.5938V127.134H58.2781V125.449Z" fill="white"/>
<path d="M59.9656 122.08H58.2812V123.764H59.9656V122.08Z" fill="white"/>
<path d="M59.9656 123.764H58.2812V125.448H59.9656V123.764Z" fill="white"/>
<path d="M59.9656 125.449H58.2812V127.134H59.9656V125.449Z" fill="white"/>
<path d="M61.6453 122.08H59.9609V123.764H61.6453V122.08Z" fill="white"/>
<path d="M61.6453 123.764H59.9609V125.448H61.6453V123.764Z" fill="white"/>
<path d="M61.6453 125.449H59.9609V127.134H61.6453V125.449Z" fill="white"/>
</g>
<path d="M88.0478 24.59C88.0478 30.3277 83.403 34.9537 77.6275 34.9443C71.9275 34.9443 67.3203 30.2712 67.3203 24.5052C67.3203 18.8145 72.0028 14.2074 77.7688 14.2168C83.4124 14.2168 88.0478 18.8899 88.0478 24.59ZM77.9573 34.3978C83.6291 34.2094 88.0007 29.3007 87.4448 23.6101C86.9455 18.4754 82.3477 14.2828 76.7042 14.8198C71.5694 15.3097 67.3674 19.9169 67.9139 25.5604C68.4038 30.6009 72.7283 34.5203 77.9573 34.3978Z" fill="#7F7F7F"/>
<path d="M77.9259 18.3242C80.1117 18.3996 82.0243 19.3983 83.4093 21.3956C83.5506 21.6029 83.6448 21.8385 83.4752 22.0363C83.3622 22.1588 83.1361 22.253 82.9759 22.2436C82.8346 22.2342 82.6838 22.0646 82.5896 21.9327C81.6946 20.6419 80.498 19.8034 78.9529 19.4642C76.6163 18.946 74.2044 19.8882 72.8477 21.8573C72.8194 21.9044 72.7912 21.9515 72.7535 21.9986C72.5462 22.2907 72.2636 22.3661 72.0186 22.2059C71.7736 22.0457 71.7077 21.7254 71.9432 21.4522C72.4237 20.8869 72.8948 20.2839 73.4601 19.8034C74.6755 18.7953 76.117 18.3525 77.9259 18.3431" fill="#7F7F7F"/>
<path d="M73.1039 27.3969V30.327C73.1039 30.7322 72.7836 30.93 72.4161 30.7416C72.3596 30.7133 72.3125 30.6003 72.3125 30.5343C72.3125 29.2247 72.3125 27.9245 72.3125 26.6149C72.3125 26.5207 72.369 26.3888 72.4444 26.3323C72.7742 26.1062 73.5279 26.304 73.7257 26.6715C74.1686 27.5006 74.602 28.3297 75.0353 29.1682C75.073 29.2341 75.1013 29.3001 75.1767 29.3472V26.7091C75.1767 26.304 75.252 26.2381 75.6572 26.2475C75.8927 26.2475 76.0152 26.3229 76.0152 26.5961C76.0058 27.8209 76.0152 29.0551 76.0152 30.2799C76.0152 30.6756 75.9304 30.7133 75.5535 30.7604C75.0636 30.817 74.8092 30.6003 74.5925 30.1857C74.1309 29.2624 73.6315 28.3579 73.1228 27.3875" fill="#7F7F7F"/>
<path d="M77.4092 20.5488C79.4631 20.6054 80.8952 21.3402 81.8939 22.8477C81.9975 22.9984 81.9881 23.2811 81.9127 23.4507C81.8656 23.5637 81.5924 23.6579 81.4417 23.6391C81.3003 23.6203 81.1496 23.4601 81.0554 23.3282C80.3299 22.3295 79.3689 21.7171 78.1347 21.5852C76.599 21.4344 75.3742 21.9997 74.4226 23.2057C74.3849 23.2528 74.3472 23.3093 74.3095 23.3659C74.0928 23.6674 73.8384 23.7522 73.5841 23.5826C73.3297 23.4224 73.292 23.1115 73.5087 22.8006C74.1211 21.8961 74.9314 21.2272 75.9771 20.8786C76.5236 20.6996 77.1077 20.6242 77.4281 20.5488" fill="#7F7F7F"/>
<path d="M83.1579 27.3697C82.9412 27.2566 82.7527 27.1342 82.5549 27.0494C81.8954 26.795 81.3018 27.0682 81.0663 27.7371C80.8967 28.2271 80.8873 28.7358 81.0286 29.2352C81.2359 29.9324 81.8577 30.2339 82.5737 29.9795C82.781 29.9041 82.9694 29.791 83.1673 29.6968C83.3934 30.1491 83.2898 30.4788 82.8564 30.6578C81.3489 31.2985 80.0205 30.4035 79.9545 28.6981C79.9451 28.3684 79.9828 28.0292 80.0676 27.7183C80.3879 26.4747 81.641 25.8717 82.8281 26.3616C83.2804 26.55 83.3934 26.8798 83.1579 27.3697Z" fill="#7F7F7F"/>
<path d="M77.8882 27.0295V28.2354C78.2839 28.2354 78.6796 28.2543 79.0753 28.2354C79.3768 28.2166 79.3957 28.3862 79.3957 28.6029C79.3957 28.8196 79.358 28.9892 79.0659 28.9703C78.6796 28.9515 78.2933 28.9703 77.8694 28.9703C77.8694 29.4791 77.86 29.9596 77.8694 30.4495C77.8788 30.7039 77.7846 30.7887 77.549 30.7792C77.4266 30.7792 77.2947 30.8075 77.191 30.7604C77.0968 30.7227 76.9649 30.6097 76.9649 30.5249C76.9461 29.2153 76.9555 27.9151 76.9555 26.6055C76.9555 26.3888 77.078 26.2852 77.2852 26.2852C77.9259 26.2852 78.5666 26.2852 79.2072 26.2852C79.4805 26.2852 79.471 26.4642 79.4616 26.6432C79.4616 26.8222 79.5087 27.0389 79.2072 27.0389C78.7739 27.0389 78.3499 27.0389 77.8788 27.0389" fill="#7F7F7F"/>
<path d="M77.9292 22.8555C78.7301 22.8837 79.578 23.2983 80.1998 24.1556C80.4259 24.4666 80.4165 24.768 80.1716 24.9471C79.9172 25.1449 79.644 25.0695 79.3896 24.7304C78.4851 23.5338 76.8458 23.5338 75.9413 24.7304C75.6963 25.0507 75.4419 25.1261 75.1876 24.9565C74.9332 24.7775 74.9143 24.4666 75.1499 24.1462C75.7246 23.336 76.6667 22.8555 77.9198 22.8555" fill="#7F7F7F"/>
<path d="M53.1759 168.098L54.362 165.479H54.7324L55.9221 168.098H55.5293L54.4705 165.688H54.6201L53.5613 168.098H53.1759ZM53.681 167.443L53.7821 167.144H55.2562L55.3647 167.443H53.681ZM60.7597 168.098V165.479H61.7811C62.0094 165.479 62.2039 165.516 62.3685 165.587C62.5294 165.662 62.6529 165.767 62.7427 165.901C62.8287 166.04 62.8736 166.204 62.8736 166.392C62.8736 166.582 62.8287 166.747 62.7427 166.882C62.6529 167.016 62.5294 167.121 62.3685 167.196C62.2039 167.271 62.0094 167.304 61.7811 167.304H60.9655L61.1339 167.129V168.098H60.7597ZM61.1339 167.166L60.9655 166.979H61.7699C62.0094 166.979 62.1889 166.93 62.3124 166.826C62.4359 166.725 62.4995 166.579 62.4995 166.392C62.4995 166.204 62.4359 166.062 62.3124 165.958C62.1889 165.857 62.0094 165.804 61.7699 165.804H60.9655L61.1339 165.617V167.166ZM65.1443 168.098V165.479H66.1658C66.394 165.479 66.5885 165.516 66.7532 165.587C66.914 165.662 67.0375 165.767 67.1273 165.901C67.2134 166.04 67.2582 166.204 67.2582 166.392C67.2582 166.582 67.2134 166.747 67.1273 166.882C67.0375 167.016 66.914 167.121 66.7532 167.192C66.5885 167.267 66.394 167.301 66.1658 167.301H65.3501L65.5185 167.129V168.098H65.1443ZM66.8953 168.098L66.2294 167.147H66.6297L67.3031 168.098H66.8953ZM65.5185 167.166L65.3501 166.983H66.1545C66.394 166.983 66.5736 166.934 66.697 166.829C66.8205 166.725 66.8841 166.579 66.8841 166.392C66.8841 166.204 66.8205 166.062 66.697 165.958C66.5736 165.857 66.394 165.804 66.1545 165.804H65.3501L65.5185 165.617V167.166ZM70.7661 168.128C70.564 168.128 70.3807 168.094 70.2086 168.027C70.0365 167.959 69.8906 167.866 69.7671 167.746C69.6399 167.626 69.5426 167.484 69.4753 167.319C69.4042 167.159 69.3705 166.983 69.3705 166.788C69.3705 166.597 69.4042 166.421 69.4753 166.257C69.5426 166.096 69.6399 165.954 69.7671 165.834C69.8906 165.714 70.0365 165.617 70.2086 165.55C70.377 165.482 70.564 165.449 70.7661 165.449C70.9644 165.449 71.1477 165.482 71.3161 165.55C71.4844 165.617 71.6303 165.711 71.7575 165.83C71.8847 165.95 71.982 166.092 72.0494 166.253C72.1167 166.418 72.1541 166.594 72.1541 166.788C72.1541 166.983 72.1167 167.162 72.0494 167.323C71.982 167.488 71.8847 167.63 71.7575 167.75C71.6303 167.869 71.4844 167.963 71.3161 168.03C71.1477 168.098 70.9644 168.128 70.7661 168.128ZM70.7661 167.795C70.9082 167.795 71.0429 167.772 71.1664 167.72C71.2899 167.671 71.3984 167.6 71.4882 167.51C71.578 167.42 71.649 167.312 71.7014 167.188C71.7538 167.069 71.78 166.934 71.78 166.788C71.78 166.646 71.7538 166.511 71.7014 166.388C71.649 166.268 71.578 166.16 71.4882 166.07C71.3984 165.98 71.2899 165.909 71.1664 165.857C71.0429 165.808 70.9082 165.782 70.7661 165.782C70.6164 165.782 70.4817 165.808 70.3582 165.857C70.2348 165.909 70.1263 165.98 70.0365 166.07C69.943 166.16 69.8719 166.268 69.8195 166.388C69.7671 166.511 69.7447 166.646 69.7447 166.788C69.7447 166.934 69.7671 167.069 69.8195 167.188C69.8719 167.312 69.943 167.42 70.0365 167.51C70.1263 167.6 70.2348 167.671 70.3582 167.72C70.4817 167.772 70.6164 167.795 70.7661 167.795ZM74.447 168.098V165.479H75.5508C75.8276 165.479 76.0746 165.535 76.2878 165.643C76.5011 165.756 76.6657 165.909 76.7854 166.103C76.9052 166.302 76.965 166.53 76.965 166.788C76.965 167.05 76.9052 167.278 76.7854 167.473C76.6657 167.671 76.5011 167.825 76.2878 167.933C76.0746 168.045 75.8276 168.098 75.5508 168.098H74.447ZM74.8212 167.772H75.5283C75.7453 167.772 75.9324 167.731 76.0895 167.649C76.2467 167.566 76.3701 167.454 76.4599 167.304C76.546 167.155 76.5909 166.983 76.5909 166.788C76.5909 166.594 76.546 166.421 76.4599 166.272C76.3701 166.126 76.2467 166.01 76.0895 165.928C75.9324 165.845 75.7453 165.804 75.5283 165.804H74.8212V167.772ZM80.3442 168.128C80 168.128 79.7268 168.03 79.5323 167.832C79.334 167.637 79.2367 167.349 79.2367 166.968V165.479H79.6108V166.953C79.6108 167.245 79.6744 167.458 79.8017 167.593C79.9289 167.727 80.1122 167.795 80.3479 167.795C80.5836 167.795 80.7669 167.727 80.8942 167.593C81.0214 167.458 81.0887 167.245 81.0887 166.953V165.479H81.4516V166.968C81.4516 167.349 81.3506 167.637 81.1561 167.832C80.9615 168.03 80.6884 168.128 80.3442 168.128ZM85.1108 168.128C84.9088 168.128 84.7254 168.098 84.5571 168.03C84.3887 167.963 84.2428 167.869 84.1193 167.75C83.9958 167.63 83.8986 167.488 83.8312 167.323C83.7601 167.162 83.7265 166.983 83.7265 166.788C83.7265 166.594 83.7601 166.418 83.8312 166.253C83.8986 166.092 83.9958 165.95 84.1231 165.83C84.2465 165.711 84.3924 165.617 84.5608 165.55C84.7292 165.482 84.9125 165.449 85.1145 165.449C85.3166 165.449 85.4999 165.486 85.672 165.553C85.8441 165.621 85.99 165.722 86.1098 165.857L85.8666 166.092C85.7655 165.987 85.6533 165.913 85.5298 165.86C85.4026 165.808 85.2717 165.782 85.1295 165.782C84.9798 165.782 84.8452 165.808 84.7179 165.857C84.5907 165.909 84.4822 165.976 84.3924 166.066C84.2989 166.156 84.2278 166.264 84.1754 166.388C84.1231 166.511 84.1006 166.646 84.1006 166.788C84.1006 166.934 84.1231 167.069 84.1754 167.192C84.2278 167.316 84.2989 167.42 84.3924 167.51C84.4822 167.6 84.5907 167.671 84.7179 167.72C84.8452 167.772 84.9798 167.795 85.1295 167.795C85.2717 167.795 85.4026 167.772 85.5298 167.72C85.6533 167.667 85.7655 167.589 85.8666 167.48L86.1098 167.716C85.99 167.851 85.8441 167.955 85.672 168.023C85.4999 168.094 85.3128 168.128 85.1108 168.128ZM88.8554 168.098V165.804H87.9574V165.479H90.1237V165.804H89.2258V168.098H88.8554ZM96.1604 168.128C95.9583 168.128 95.775 168.094 95.6029 168.027C95.4308 167.959 95.2849 167.866 95.1614 167.746C95.0342 167.626 94.9369 167.484 94.8696 167.319C94.7985 167.159 94.7648 166.983 94.7648 166.788C94.7648 166.597 94.7985 166.421 94.8696 166.257C94.9369 166.096 95.0342 165.954 95.1614 165.834C95.2849 165.714 95.4308 165.617 95.6029 165.55C95.7713 165.482 95.9583 165.449 96.1604 165.449C96.3587 165.449 96.542 165.482 96.7104 165.55C96.8787 165.617 97.0246 165.711 97.1519 165.83C97.2791 165.95 97.3763 166.092 97.4437 166.253C97.511 166.418 97.5484 166.594 97.5484 166.788C97.5484 166.983 97.511 167.162 97.4437 167.323C97.3763 167.488 97.2791 167.63 97.1519 167.75C97.0246 167.869 96.8787 167.963 96.7104 168.03C96.542 168.098 96.3587 168.128 96.1604 168.128ZM96.1604 167.795C96.3026 167.795 96.4372 167.772 96.5607 167.72C96.6842 167.671 96.7927 167.6 96.8825 167.51C96.9723 167.42 97.0434 167.312 97.0957 167.188C97.1481 167.069 97.1743 166.934 97.1743 166.788C97.1743 166.646 97.1481 166.511 97.0957 166.388C97.0434 166.268 96.9723 166.16 96.8825 166.07C96.7927 165.98 96.6842 165.909 96.5607 165.857C96.4372 165.808 96.3026 165.782 96.1604 165.782C96.0107 165.782 95.876 165.808 95.7526 165.857C95.6291 165.909 95.5206 165.98 95.4308 166.07C95.3373 166.16 95.2662 166.268 95.2138 166.388C95.1614 166.511 95.139 166.646 95.139 166.788C95.139 166.934 95.1614 167.069 95.2138 167.188C95.2662 167.312 95.3373 167.42 95.4308 167.51C95.5206 167.6 95.6291 167.671 95.7526 167.72C95.876 167.772 96.0107 167.795 96.1604 167.795ZM100.178 166.717H101.529V167.039H100.178V166.717ZM100.215 168.098H99.8414V165.479H101.69V165.804H100.215V168.098Z" fill="white"/>
<g clip-path="url(#clip1_622_11530)">
<path fill-rule="evenodd" clip-rule="evenodd" d="M65.8501 175.34C65.8501 175.536 65.9066 175.685 66.0195 175.785C66.1324 175.886 66.2955 175.936 66.5088 175.936H69.3878V176.978H66.2704C66.007 176.978 65.7645 176.945 65.5428 176.878C65.3212 176.812 65.1319 176.714 64.9751 176.584C64.8183 176.453 64.696 176.292 64.6083 176.1C64.5205 175.909 64.4766 175.689 64.4766 175.443V172.283H65.8503V175.34H65.8501ZM70.226 176.978H71.6059V174.113H70.226V176.978ZM71.6059 173.325V172.283H70.226V173.325H71.6059V173.325ZM72.4442 176.978H76.0822C76.3331 176.978 76.5631 176.949 76.7722 176.892C76.9813 176.835 77.1653 176.749 77.3242 176.635C77.483 176.521 77.6106 176.38 77.7068 176.213C77.803 176.047 77.8636 175.856 77.8887 175.641V175.443C77.8428 175.118 77.7215 174.851 77.5249 174.641C77.7298 174.421 77.851 174.147 77.8887 173.818V173.62C77.8594 173.405 77.7957 173.214 77.6974 173.047C77.5992 172.881 77.4726 172.741 77.318 172.629C77.1632 172.517 76.9814 172.432 76.7722 172.372C76.5631 172.313 76.3331 172.283 76.0822 172.283H72.4442V173.325H75.8502C75.9338 173.325 76.0143 173.333 76.0917 173.349C76.1691 173.365 76.237 173.389 76.2956 173.421C76.3541 173.453 76.4001 173.494 76.4336 173.544C76.4671 173.594 76.4838 173.654 76.4838 173.722C76.4838 173.841 76.4357 173.933 76.3396 173.996C76.2434 174.06 76.1284 174.099 75.9946 174.113H72.4444V176.977L72.4442 176.978ZM75.9944 175.155C76.1283 175.173 76.2432 175.213 76.3394 175.275C76.4355 175.336 76.4836 175.427 76.4836 175.545C76.4836 175.682 76.4209 175.782 76.2955 175.843C76.17 175.905 76.0216 175.936 75.8502 175.936H73.8242V175.155H75.9945L75.9944 175.155ZM78.7271 176.978H83.6447V175.936H80.1071V175.155H83.6447V174.113H78.7271V176.977V176.978ZM83.6446 173.325V172.283H78.727V173.325H83.6446V173.325ZM84.4829 176.978H85.8628V175.155H86.2392L88.2589 176.978H89.9525L87.9892 175.155C88.5663 175.155 89.0221 175.043 89.3567 174.819C89.6912 174.595 89.8815 174.262 89.9274 173.818V173.62C89.8981 173.405 89.8344 173.214 89.7361 173.048C89.6378 172.881 89.5113 172.741 89.3566 172.629C89.2019 172.518 89.02 172.432 88.8108 172.372C88.6017 172.313 88.3717 172.283 88.1208 172.283H84.4828V173.325H87.8888C87.9724 173.325 88.0529 173.333 88.1303 173.349C88.2077 173.365 88.2756 173.389 88.3342 173.421C88.3928 173.453 88.4387 173.494 88.4722 173.544C88.5057 173.594 88.5224 173.654 88.5224 173.722C88.5224 173.86 88.4596 173.959 88.3343 174.021C88.2088 174.082 88.0604 174.113 87.889 174.113H84.483V176.978H84.4829ZM96.2102 173.325V172.283H90.7657V173.325H92.798V176.978H94.178V173.325H96.2102ZM99.5325 173.901L98.3847 172.283H96.8605L98.8301 175.155V176.978H100.216V175.155L102.192 172.283H100.662L99.5325 173.901Z" fill="white"/>
<path d="M64.4922 178.861V178.584H66.9498V178.861H65.8817V181.618H65.5604V178.861H64.4923H64.4922Z" fill="white"/>
<path d="M70.3055 181.618H68.1562V178.584H70.2404V178.861H68.4775V179.941H70.0493V180.214H68.4775V181.34H70.3055V181.618V181.618Z" fill="white"/>
<path d="M71.675 180.892C71.5375 180.657 71.4688 180.393 71.4688 180.101C71.4688 179.81 71.5375 179.546 71.675 179.311C71.8125 179.075 72.0028 178.891 72.2459 178.758C72.4891 178.625 72.7611 178.559 73.0622 178.559C73.288 178.559 73.4963 178.596 73.6875 178.671C73.8785 178.746 74.0406 178.856 74.1738 179.001L73.9697 179.204C73.7324 178.965 73.4327 178.845 73.071 178.845C72.8308 178.845 72.6122 178.9 72.4153 179.009C72.2185 179.119 72.0643 179.269 71.9528 179.46C71.8414 179.651 71.7856 179.865 71.7856 180.101C71.7856 180.338 71.8414 180.552 71.9528 180.743C72.0643 180.934 72.2185 181.084 72.4153 181.194C72.6121 181.303 72.8307 181.358 73.071 181.358C73.4357 181.358 73.7353 181.237 73.9697 180.994L74.1738 181.198C74.0407 181.342 73.8778 181.453 73.6853 181.529C73.4928 181.606 73.2837 181.644 73.0579 181.644C72.7568 181.644 72.4855 181.578 72.2438 181.445C72.002 181.312 71.8125 181.128 71.675 180.892V180.892Z" fill="white"/>
<path d="M78.0948 181.618H77.7778V180.218H75.8759V181.618H75.5547V178.584H75.8759V179.936H77.7778V178.584H78.0948V181.618Z" fill="white"/>
<path d="M82.3214 181.618H82.0565L80.1026 179.156V181.618H79.7812V178.584H80.0462L82.0044 181.046V178.584H82.3214V181.618Z" fill="white"/>
<path d="M83.9406 180.89C83.8031 180.656 83.7344 180.393 83.7344 180.101C83.7344 179.81 83.8032 179.547 83.9406 179.313C84.0781 179.079 84.2691 178.895 84.5137 178.76C84.7583 178.626 85.0312 178.559 85.3322 178.559C85.6332 178.559 85.9046 178.625 86.1463 178.758C86.3881 178.891 86.5783 179.075 86.7173 179.311C86.8562 179.546 86.9257 179.81 86.9257 180.101C86.9257 180.393 86.8562 180.657 86.7173 180.892C86.5783 181.128 86.3881 181.312 86.1463 181.445C85.9046 181.578 85.6332 181.644 85.3322 181.644C85.0312 181.644 84.7583 181.577 84.5137 181.443C84.2691 181.309 84.078 181.124 83.9406 180.89ZM86.4394 180.745C86.5493 180.553 86.6044 180.338 86.6044 180.101C86.6044 179.865 86.5493 179.65 86.4394 179.458C86.3294 179.266 86.1775 179.116 85.9835 179.007C85.7895 178.899 85.5725 178.845 85.3322 178.845C85.0919 178.845 84.8741 178.899 84.6788 179.007C84.4834 179.116 84.3299 179.266 84.2185 179.458C84.107 179.65 84.0512 179.865 84.0512 180.101C84.0512 180.338 84.107 180.553 84.2185 180.745C84.3299 180.937 84.4834 181.087 84.6788 181.196C84.8741 181.304 85.092 181.358 85.3322 181.358C85.5724 181.358 85.7895 181.304 85.9835 181.196C86.1775 181.087 86.3294 180.937 86.4394 180.745Z" fill="white"/>
<path d="M88.6651 178.584V181.34H90.3672V181.618H88.3438V178.584H88.6651Z" fill="white"/>
<path d="M91.4718 180.89C91.3343 180.656 91.2656 180.393 91.2656 180.101C91.2656 179.81 91.3344 179.547 91.4718 179.313C91.6093 179.079 91.8003 178.895 92.0449 178.76C92.2895 178.626 92.5624 178.559 92.8634 178.559C93.1645 178.559 93.4358 178.625 93.6776 178.758C93.9193 178.891 94.1096 179.075 94.2485 179.311C94.3875 179.546 94.457 179.81 94.457 180.101C94.457 180.393 94.3875 180.657 94.2485 180.892C94.1096 181.128 93.9193 181.312 93.6776 181.445C93.4358 181.578 93.1645 181.644 92.8634 181.644C92.5624 181.644 92.2895 181.577 92.0449 181.443C91.8003 181.309 91.6092 181.124 91.4718 180.89ZM93.9707 180.745C94.0806 180.553 94.1356 180.338 94.1356 180.101C94.1356 179.865 94.0806 179.65 93.9707 179.458C93.8606 179.266 93.7087 179.116 93.5147 179.007C93.3208 178.899 93.1038 178.845 92.8634 178.845C92.6231 178.845 92.4054 178.899 92.21 179.007C92.0146 179.116 91.8612 179.266 91.7497 179.458C91.6382 179.65 91.5825 179.865 91.5825 180.101C91.5825 180.338 91.6382 180.553 91.7497 180.745C91.8612 180.937 92.0146 181.087 92.21 181.196C92.4054 181.304 92.6232 181.358 92.8634 181.358C93.1037 181.358 93.3208 181.304 93.5147 181.196C93.7087 181.087 93.8606 180.937 93.9707 180.745Z" fill="white"/>
<path d="M98.3197 180.102V181.259C98.1779 181.383 98.0099 181.478 97.816 181.545C97.622 181.611 97.4179 181.644 97.2038 181.644C96.8999 181.644 96.6263 181.578 96.3831 181.445C96.14 181.312 95.949 181.128 95.81 180.892C95.6711 180.657 95.6016 180.393 95.6016 180.101C95.6016 179.81 95.6711 179.546 95.81 179.311C95.949 179.075 96.14 178.891 96.3831 178.758C96.6263 178.625 96.9013 178.559 97.2081 178.559C97.4396 178.559 97.6524 178.595 97.8463 178.669C98.0403 178.743 98.2038 178.852 98.3369 178.996L98.1371 179.2C97.8968 178.963 97.5915 178.845 97.2209 178.845C96.9749 178.845 96.7528 178.899 96.5544 179.007C96.3562 179.115 96.2006 179.266 96.0877 179.458C95.9748 179.65 95.9183 179.864 95.9183 180.101C95.9183 180.338 95.9748 180.552 96.0877 180.743C96.2006 180.933 96.3555 181.084 96.5523 181.193C96.7491 181.303 96.9705 181.358 97.2166 181.358C97.5292 181.358 97.7941 181.28 98.0113 181.124V180.101H98.3196L98.3197 180.102Z" fill="white"/>
<path d="M100.962 181.618H100.645V180.569L99.4297 178.584H99.7727L100.815 180.287L101.857 178.584H102.178L100.962 180.569V181.618H100.962Z" fill="white"/>
<path fill-rule="evenodd" clip-rule="evenodd" d="M55.3944 174.073H53.3281V172.254H55.3944V174.073Z" fill="white"/>
<path fill-rule="evenodd" clip-rule="evenodd" d="M60.8084 174.829V175.705C61.641 176.267 62.3439 177.007 62.8605 177.865V173.638C62.8605 172.874 62.2397 172.254 61.4738 172.254H56.5547V174.065L60.071 174.093C60.4782 174.093 60.8084 174.422 60.8084 174.829Z" fill="white"/>
<path fill-rule="evenodd" clip-rule="evenodd" d="M56.5703 175.275V177.333C58.9254 177.54 60.8153 179.361 61.1249 181.682H63.0807C62.8304 178.228 60.0432 175.477 56.5703 175.275Z" fill="white"/>
<path fill-rule="evenodd" clip-rule="evenodd" d="M55.3993 179.202V175.137H53.3281V180.268C53.3281 181.049 53.9625 181.682 54.745 181.682H59.9971C59.9971 181.682 59.9826 181.312 59.781 180.752C59.5775 180.186 59.3705 179.967 59.3705 179.967L56.1527 179.954C55.7366 179.954 55.3993 179.617 55.3993 179.202V179.202Z" fill="white"/>
<path fill-rule="evenodd" clip-rule="evenodd" d="M70.2266 176.978H71.6065V174.113H70.2266V176.978Z" fill="white"/>
<path fill-rule="evenodd" clip-rule="evenodd" d="M71.6065 173.325V172.283H70.2266V173.325H71.6065Z" fill="white"/>
<path fill-rule="evenodd" clip-rule="evenodd" d="M77.8898 173.62C77.8605 173.405 77.7968 173.214 77.6985 173.047C77.6003 172.881 77.4737 172.741 77.319 172.629C77.1643 172.517 76.9825 172.432 76.7733 172.372C76.5642 172.313 76.3342 172.283 76.0833 172.283H72.4453V173.325H75.8513C75.9349 173.325 76.0154 173.333 76.0928 173.349C76.1702 173.365 76.2381 173.389 76.2966 173.421C76.3551 173.453 76.4012 173.494 76.4347 173.544C76.4682 173.594 76.4849 173.654 76.4849 173.722C76.4849 173.841 76.4368 173.932 76.3406 173.996C76.2445 174.06 76.1294 174.099 75.9957 174.113H72.4455V176.977H76.0835C76.3344 176.977 76.5644 176.949 76.7735 176.892C76.9826 176.835 77.1666 176.749 77.3255 176.635C77.4843 176.52 77.6119 176.38 77.7081 176.213C77.8042 176.046 77.8649 175.856 77.89 175.641V175.442C77.844 175.118 77.7228 174.851 77.5262 174.64C77.731 174.421 77.8523 174.147 77.89 173.818V173.619L77.8898 173.62ZM76.2966 175.843C76.1712 175.905 76.0228 175.936 75.8514 175.936H73.8254V175.155H75.9957C76.1295 175.173 76.2445 175.213 76.3406 175.275C76.4368 175.336 76.4849 175.426 76.4849 175.545C76.4849 175.682 76.4222 175.782 76.2968 175.843L76.2966 175.843Z" fill="white"/>
<path fill-rule="evenodd" clip-rule="evenodd" d="M78.7266 176.978H83.6441V175.936H80.1064V175.155H83.6441V174.113H78.7266V176.978Z" fill="white"/>
<path fill-rule="evenodd" clip-rule="evenodd" d="M83.6441 173.325V172.283H78.7266V173.325H83.6441Z" fill="white"/>
<path fill-rule="evenodd" clip-rule="evenodd" d="M96.2101 173.325V172.283H90.7656V173.325H92.7979V176.977H94.1779V173.325H96.2101Z" fill="white"/>
<path fill-rule="evenodd" clip-rule="evenodd" d="M99.5315 173.9L98.3836 172.283H96.8594L98.829 175.154V176.977H100.215V175.154L102.191 172.283H100.66L99.5315 173.9Z" fill="white"/>
</g>
<path d="M58.7202 145.977L60.3052 142.477H60.8002L62.3902 145.977H61.8652L60.4502 142.757H60.6502L59.2352 145.977H58.7202ZM59.3952 145.102L59.5302 144.702H61.5002L61.6452 145.102H59.3952ZM63.8123 145.977V142.477H64.2223L66.5373 145.352H66.3223V142.477H66.8223V145.977H66.4123L64.0973 143.102H64.3123V145.977H63.8123ZM69.6149 145.977V144.637L69.7299 144.947L68.2249 142.477H68.7599L70.0249 144.562H69.7349L71.0049 142.477H71.4999L69.9999 144.947L70.1099 144.637V145.977H69.6149ZM72.5184 145.977V145.637L73.9434 144.262C74.0684 144.142 74.1634 144.037 74.2234 143.947C74.2834 143.857 74.3284 143.772 74.3484 143.692C74.3684 143.612 74.3834 143.537 74.3834 143.462C74.3834 143.282 74.3184 143.142 74.1934 143.037C74.0634 142.937 73.8784 142.882 73.6384 142.882C73.4484 142.882 73.2834 142.917 73.1334 142.977C72.9834 143.037 72.8534 143.132 72.7434 143.262L72.4034 142.967C72.5334 142.797 72.7134 142.667 72.9384 142.577C73.1634 142.487 73.4134 142.437 73.6834 142.437C73.9234 142.437 74.1384 142.477 74.3184 142.557C74.4984 142.637 74.6334 142.747 74.7334 142.892C74.8334 143.042 74.8834 143.212 74.8834 143.412C74.8834 143.527 74.8684 143.637 74.8384 143.747C74.8084 143.857 74.7484 143.977 74.6684 144.097C74.5834 144.222 74.4634 144.362 74.3084 144.512L73.0384 145.737L72.9184 145.542H75.0334V145.977H72.5184ZM77.2903 145.977V142.912H76.0903V142.477H78.9853V142.912H77.7853V145.977H77.2903ZM79.7241 145.977L81.3091 142.477H81.8041L83.3941 145.977H82.8691L81.4541 142.757H81.6541L80.2391 145.977H79.7241ZM80.3991 145.102L80.5341 144.702H82.5041L82.6491 145.102H80.3991ZM85.8718 146.017C85.5868 146.017 85.3418 145.977 85.1368 145.892C84.9268 145.812 84.7668 145.692 84.6568 145.537C84.5418 145.382 84.4868 145.197 84.4868 144.987C84.4868 144.782 84.5368 144.607 84.6468 144.462C84.7568 144.317 84.9118 144.207 85.1218 144.132C85.3268 144.057 85.5768 144.017 85.8718 144.017C86.1618 144.017 86.4118 144.057 86.6218 144.132C86.8318 144.207 86.9918 144.317 87.1018 144.462C87.2118 144.612 87.2668 144.787 87.2668 144.987C87.2668 145.197 87.2068 145.382 87.0968 145.537C86.9818 145.692 86.8218 145.812 86.6118 145.892C86.4018 145.977 86.1518 146.017 85.8718 146.017ZM85.8718 145.612C86.1518 145.612 86.3668 145.557 86.5268 145.442C86.6868 145.327 86.7668 145.172 86.7668 144.972C86.7668 144.782 86.6868 144.627 86.5268 144.517C86.3668 144.407 86.1518 144.347 85.8718 144.347C85.5918 144.347 85.3768 144.407 85.2218 144.517C85.0618 144.627 84.9868 144.782 84.9868 144.972C84.9868 145.172 85.0618 145.327 85.2218 145.442C85.3768 145.557 85.5918 145.612 85.8718 145.612ZM85.8718 144.287C85.6018 144.287 85.3768 144.252 85.1918 144.182C85.0018 144.112 84.8618 144.007 84.7618 143.872C84.6618 143.737 84.6118 143.577 84.6118 143.387C84.6118 143.192 84.6618 143.022 84.7668 142.882C84.8718 142.742 85.0218 142.632 85.2118 142.552C85.4018 142.477 85.6218 142.437 85.8718 142.437C86.1218 142.437 86.3468 142.477 86.5368 142.552C86.7268 142.632 86.8718 142.742 86.9818 142.882C87.0868 143.022 87.1418 143.192 87.1418 143.387C87.1418 143.577 87.0918 143.737 86.9918 143.872C86.8918 144.007 86.7468 144.112 86.5568 144.182C86.3668 144.252 86.1368 144.287 85.8718 144.287ZM85.8718 143.967C86.1118 143.967 86.3018 143.917 86.4418 143.817C86.5818 143.717 86.6518 143.582 86.6518 143.407C86.6518 143.232 86.5768 143.092 86.4368 142.992C86.2918 142.892 86.1018 142.842 85.8718 142.842C85.6368 142.842 85.4518 142.892 85.3118 142.992C85.1718 143.092 85.1068 143.232 85.1068 143.407C85.1068 143.582 85.1718 143.717 85.3068 143.817C85.4418 143.917 85.6318 143.967 85.8718 143.967ZM88.9096 145.977V142.477H89.4096V145.542H91.3046V145.977H88.9096ZM92.2483 145.977L93.8333 142.477H94.3283L95.9183 145.977H95.3933L93.9783 142.757H94.1783L92.7633 145.977H92.2483ZM92.9233 145.102L93.0583 144.702H95.0283L95.1733 145.102H92.9233Z" fill="white"/>
<defs>
<clipPath id="clip0_622_11530">
<rect width="50.53" height="50.53" fill="white" transform="translate(52.3828 80.8145)"/>
</clipPath>
<clipPath id="clip1_622_11530">
<rect width="48.863" height="9.42838" fill="white" transform="translate(53.3281 172.254)"/>
</clipPath>
</defs>
</svg>
